<svg width="70" height="70" viewBox="0 0 70 70" fill="none" xmlns="http://www.w3.org/2000/svg">
<path d="M62.0455 47.7274C60.0512 47.7274 58.248 48.4906 56.8504 49.7076L45.9517 41.3732C47.0512 39.4916 47.7273 37.3322 47.7273 35.0002C47.7273 32.7597 47.0952 30.6837 46.0744 28.853L53.5459 23.373C54.9581 24.6529 56.8123 25.4547 58.8637 25.4547C63.2496 25.4547 66.8182 21.886 66.8182 17.5002C66.8182 13.1144 63.2496 9.54556 58.8637 9.54556C54.4779 9.54556 50.9092 13.1142 50.9092 17.5001C50.9092 18.6855 51.1875 19.801 51.6545 20.8126L44.2143 26.2699C41.8931 23.8212 38.6323 22.2729 35.0001 22.2729C33.9862 22.2729 33.0124 22.4227 32.0665 22.6477L30.2342 17.7599C33.0698 16.1031 35.0001 13.0602 35.0001 9.5457C35.0001 4.28198 30.7183 0.000244141 25.4546 0.000244141C20.1909 0.000244141 15.9092 4.28198 15.9092 9.5457C15.9092 14.8094 20.1909 19.0912 25.4546 19.0912C26.0751 19.0912 26.6787 19.0217 27.2665 18.908L29.0975 23.7927C25.7207 25.5798 23.2295 28.7986 22.5082 32.6717L15.7945 32.2776C15.239 28.4305 11.953 25.4547 7.9545 25.4547C3.56866 25.4547 0 29.0234 0 33.4092C0 37.795 3.56866 41.3637 7.9545 41.3637C11.6294 41.3637 14.7003 38.8455 15.6092 35.4531L22.3586 35.8493C22.5773 39.088 23.9679 42.0009 26.1662 44.1285L20.2582 52.0063C18.9479 51.3286 17.4836 50.909 15.9092 50.909C10.6454 50.909 6.36369 55.1908 6.36369 60.4545C6.36369 65.7182 10.6454 69.9999 15.9092 69.9999C21.1729 69.9999 25.4546 65.7182 25.4546 60.4545C25.4546 57.9118 24.4403 55.6121 22.8141 53.8996L28.7318 46.0088C30.5902 47.0714 32.7105 47.7272 35.0001 47.7272C38.5416 47.7272 41.7436 46.2677 44.053 43.9253L54.9124 52.2294C54.4024 53.2779 54.091 54.4396 54.091 55.6817C54.091 60.0676 57.6597 63.6362 62.0455 63.6362C66.4313 63.6362 70 60.0676 70 55.6817C70 51.2959 66.4313 47.7274 62.0455 47.7274ZM58.8637 12.7273C61.4956 12.7273 63.6365 14.8682 63.6365 17.5001C63.6365 20.1319 61.4956 22.2728 58.8637 22.2728C56.2319 22.2728 54.091 20.1319 54.091 17.5001C54.091 14.8682 56.2319 12.7273 58.8637 12.7273ZM7.9545 38.1819C5.32264 38.1819 3.18177 36.0411 3.18177 33.4092C3.18177 30.7773 5.32264 28.6365 7.9545 28.6365C10.5864 28.6365 12.7272 30.7773 12.7272 33.4092C12.7272 36.0411 10.5864 38.1819 7.9545 38.1819ZM15.9092 66.8183C12.3994 66.8183 9.54546 63.9644 9.54546 60.4546C9.54546 56.9449 12.3994 54.0909 15.9092 54.0909C19.4189 54.0909 22.2728 56.9449 22.2728 60.4546C22.2728 63.9644 19.4187 66.8183 15.9092 66.8183ZM25.4546 15.9092C21.9449 15.9092 19.0909 13.0552 19.0909 9.54556C19.0909 6.03596 21.9449 3.18187 25.4546 3.18187C28.9644 3.18187 31.8182 6.03596 31.8182 9.54556C31.8182 13.0552 28.9642 15.9092 25.4546 15.9092ZM35.0001 44.5456C29.7363 44.5456 25.4546 40.2639 25.4546 35.0002C25.4546 29.7364 29.7363 25.4547 35.0001 25.4547C40.2638 25.4547 44.5455 29.7364 44.5455 35.0002C44.5455 40.2639 40.2636 44.5456 35.0001 44.5456ZM62.0455 60.4546C59.4136 60.4546 57.2728 58.3138 57.2728 55.6819C57.2728 53.05 59.4136 50.9092 62.0455 50.9092C64.6774 50.9092 66.8182 53.05 66.8182 55.6819C66.8182 58.3138 64.6774 60.4546 62.0455 60.4546Z" fill="#2C866C"/>
</svg>
