<svg width="70" height="70" viewBox="0 0 70 70" fill="none" xmlns="http://www.w3.org/2000/svg">
<path d="M57.5693 22.4443C57.1358 21.8404 56.7895 21.1784 56.5406 20.478C56.3966 19.716 56.361 18.9374 56.435 18.1654C56.6154 16.8191 56.4094 15.4493 55.8411 14.2156C55.0492 13.0966 53.9546 12.2266 52.6858 11.7076C51.991 11.393 51.3444 10.9812 50.7654 10.4846C50.2692 9.90531 49.8574 9.25873 49.5424 8.56406C49.0235 7.29488 48.1535 6.19996 47.0344 5.40772C45.8011 4.84071 44.4322 4.63515 43.0868 4.81491C42.3144 4.88894 41.5355 4.85337 40.7731 4.70925C40.0722 4.46078 39.4099 4.11466 38.8057 3.68113C37.7064 2.82894 36.3855 2.3105 35 2.1875C33.6144 2.31027 32.2932 2.82856 31.1938 3.68069C30.5898 4.11398 29.9279 4.46009 29.2274 4.70881C28.4653 4.85178 27.6869 4.88734 26.9149 4.81447C25.5686 4.63446 24.1989 4.84042 22.965 5.40837C21.8462 6.20046 20.9764 7.29515 20.4576 8.56406C20.143 9.25891 19.7312 9.90551 19.2346 10.4845C18.6553 10.9807 18.0087 11.3925 17.3141 11.7076C16.0449 12.2265 14.95 13.0965 14.1577 14.2156C13.5908 15.4489 13.3852 16.8178 13.5649 18.1632C13.639 18.9356 13.6034 19.7145 13.4593 20.4769C13.2106 21.1778 12.8643 21.8401 12.4306 22.4443C11.5786 23.5436 11.0603 24.8646 10.9375 26.25C11.0603 27.6356 11.5786 28.9568 12.4307 30.0562C12.8642 30.6602 13.2105 31.3221 13.4594 32.0226C13.6034 32.7846 13.639 33.5631 13.565 34.3351C13.3846 35.6814 13.5906 37.0512 14.1589 38.285C14.9508 39.404 16.0454 40.274 17.3142 40.7929C18.009 41.1076 18.6556 41.5194 19.2346 42.016C19.7308 42.5951 20.1425 43.2415 20.4576 43.9359C20.7662 44.5603 21.1213 45.1605 21.5201 45.7314L15.3787 62.6045C15.3083 62.7981 15.294 63.0077 15.3375 63.209C15.381 63.4104 15.4805 63.5954 15.6245 63.7427C15.7685 63.89 15.9512 63.9937 16.1515 64.0417C16.3518 64.0898 16.5616 64.0803 16.7568 64.0143L22.562 62.0534L25.7493 67.2882C25.8469 67.4485 25.9842 67.581 26.1479 67.6729C26.3116 67.7649 26.4962 67.8132 26.6839 67.8132C26.7191 67.8132 26.7554 67.811 26.7917 67.8078C26.9968 67.7875 27.192 67.7097 27.3547 67.5833C27.5174 67.4568 27.6411 67.2869 27.7114 67.0932L33.8764 50.1575C34.6112 50.365 35.3892 50.365 36.124 50.1575L42.2891 67.0932C42.3594 67.2869 42.483 67.4568 42.6458 67.5833C42.8085 67.7097 43.0036 67.7875 43.2087 67.8078C43.245 67.811 43.2813 67.8132 43.3165 67.8132C43.5043 67.8132 43.6889 67.7649 43.8525 67.6729C44.0162 67.581 44.1535 67.4485 44.2512 67.2882L47.4385 62.0534L53.2438 64.0142C53.4389 64.0802 53.6487 64.0897 53.8491 64.0416C54.0494 63.9936 54.2321 63.8899 54.3761 63.7426C54.5201 63.5953 54.6196 63.4103 54.663 63.2089C54.7065 63.0076 54.6923 62.798 54.6219 62.6044L48.48 45.7306C48.8784 45.1597 49.2336 44.5597 49.5424 43.9358C49.857 43.241 50.2688 42.5944 50.7654 42.0154C51.3447 41.5192 51.9913 41.1074 52.6859 40.7924C53.9551 40.2735 55.05 39.4035 55.8423 38.2844C56.4092 37.0511 56.6148 35.6822 56.4351 34.3368C56.361 33.5644 56.3966 32.7855 56.5408 32.0231C56.7894 31.3222 57.1357 30.6599 57.5694 30.0557C58.4214 28.9564 58.9397 27.6354 59.0625 26.25C58.9396 24.8646 58.4213 23.5436 57.5693 22.4443ZM26.4347 64.2065L23.976 60.168C23.8467 59.9558 23.649 59.7939 23.4154 59.7091C23.1819 59.6243 22.9264 59.6215 22.691 59.7012L18.2125 61.2137L23.2934 47.2534C24.4498 47.6783 25.6898 47.8262 26.9137 47.685C27.686 47.6115 28.4649 47.6471 29.2273 47.7906C29.9282 48.0393 30.5906 48.3856 31.1947 48.8193C31.4167 48.9605 31.6463 49.1048 31.8808 49.2459L26.4347 64.2065ZM47.309 59.7012C47.0736 59.6215 46.8181 59.6243 46.5846 59.7091C46.351 59.7939 46.1533 59.9558 46.024 60.168L43.5653 64.2065L38.1196 49.2464C38.3541 49.1042 38.5838 48.9605 38.8057 48.8193C39.4096 48.3858 40.0716 48.0395 40.772 47.7906C41.5341 47.6471 42.3126 47.6115 43.0846 47.685C44.3091 47.8268 45.5499 47.6786 46.7066 47.2524L51.7875 61.2137L47.309 59.7012ZM55.7236 28.8808C55.1636 29.6693 54.7267 30.5383 54.428 31.4581C54.2192 32.4322 54.1587 33.4321 54.2485 34.4243C54.3867 35.3566 54.2833 36.3087 53.9483 37.1897C53.3465 37.9312 52.5632 38.5044 51.6743 38.8537C50.7785 39.2642 49.9505 39.8088 49.2188 40.4688C48.5581 41.2002 48.0132 42.0283 47.6027 42.9243C47.2534 43.8132 46.6801 44.5965 45.9386 45.1983C45.0575 45.5325 44.1056 45.6358 43.1733 45.4985C42.1811 45.4093 41.1812 45.4698 40.207 45.678C39.2876 45.9769 38.419 46.4138 37.6308 46.9736C36.8699 47.5814 35.9627 47.9784 35 48.125C34.0373 47.9784 33.1301 47.5814 32.3692 46.9736C31.5807 46.4136 30.7117 45.9767 29.7919 45.678C29.1781 45.527 28.5472 45.4571 27.9152 45.4701C27.5499 45.4701 27.1857 45.485 26.8257 45.4989C25.8934 45.6366 24.9414 45.5332 24.0603 45.1988C23.3188 44.597 22.7456 43.8136 22.3963 42.9248C21.9858 42.0288 21.4412 41.2006 20.7812 40.4688C20.0498 39.8081 19.2217 39.2632 18.3257 38.8527C17.4368 38.5034 16.6535 37.9301 16.0517 37.1886C15.7167 36.3077 15.6134 35.3555 15.7515 34.4233C15.8413 33.4311 15.7808 32.4311 15.572 31.457C15.2731 30.5376 14.8362 29.669 14.2764 28.8808C13.6686 28.1199 13.2716 27.2127 13.125 26.25C13.2716 25.2873 13.6686 24.3801 14.2764 23.6192C14.8364 22.8307 15.2733 21.9617 15.572 21.0419C15.7808 20.0678 15.8413 19.0679 15.7515 18.0757C15.6133 17.1434 15.7167 16.1913 16.0517 15.3103C16.6535 14.5688 17.4368 13.9956 18.3257 13.6463C19.2215 13.2358 20.0495 12.6912 20.7812 12.0312C21.4419 11.2998 21.9868 10.4717 22.3973 9.57567C22.7466 8.68683 23.3199 7.90345 24.0614 7.30166C24.9424 6.96693 25.8945 6.8636 26.8267 7.00153C27.8189 7.09069 28.8188 7.03019 29.793 6.82205C30.7124 6.52306 31.581 6.0862 32.3692 5.52639C33.1301 4.91863 34.0373 4.52156 35 4.375C35.9627 4.52156 36.8699 4.91863 37.6308 5.52639C38.4193 6.08642 39.2883 6.5233 40.2081 6.82205C41.1822 7.03019 42.1821 7.09069 43.1742 7.00153C44.1066 6.86338 45.0587 6.96671 45.9397 7.30166C46.6812 7.90346 47.2544 8.68684 47.6037 9.57567C48.0142 10.4715 48.5588 11.2995 49.2188 12.0312C49.9502 12.6919 50.7783 13.2368 51.6743 13.6473C52.5632 13.9966 53.3465 14.5699 53.9483 15.3114C54.2833 16.1923 54.3866 17.1445 54.2485 18.0767C54.1587 19.0689 54.2192 20.0689 54.428 21.043C54.7269 21.9624 55.1638 22.831 55.7236 23.6192C56.3314 24.3801 56.7284 25.2873 56.875 26.25C56.7284 27.2127 56.3314 28.1199 55.7236 28.8808Z" fill="white"/>
<path d="M35 8.75C31.5388 8.75 28.1554 9.77636 25.2775 11.6993C22.3997 13.6222 20.1567 16.3553 18.8321 19.553C17.5076 22.7507 17.161 26.2694 17.8363 29.6641C18.5115 33.0587 20.1782 36.177 22.6256 38.6244C25.0731 41.0718 28.1913 42.7385 31.5859 43.4137C34.9806 44.089 38.4993 43.7424 41.697 42.4179C44.8947 41.0934 47.6278 38.8503 49.5507 35.9725C51.4737 33.0946 52.5 29.7112 52.5 26.25C52.4947 21.6103 50.6493 17.1622 47.3685 13.8815C44.0878 10.6007 39.6397 8.7553 35 8.75ZM35 41.5625C31.9715 41.5625 29.011 40.6644 26.4928 38.9819C23.9747 37.2993 22.0121 34.9078 20.8531 32.1098C19.6941 29.3118 19.3909 26.233 19.9817 23.2627C20.5726 20.2923 22.0309 17.5639 24.1724 15.4224C26.3139 13.2809 29.0424 11.8226 32.0127 11.2317C34.983 10.6409 38.0619 10.9441 40.8599 12.1031C43.6579 13.2621 46.0493 15.2247 47.7319 17.7428C49.4145 20.261 50.3125 23.2215 50.3125 26.25C50.308 30.3097 48.6932 34.2019 45.8225 37.0725C42.9519 39.9432 39.0597 41.5579 35 41.5625Z" fill="white"/>
<path d="M38.9243 20.793L35.9806 14.8286C35.8801 14.6578 35.7368 14.5162 35.5648 14.4178C35.3929 14.3195 35.1982 14.2677 35 14.2677C34.8019 14.2677 34.6072 14.3195 34.4352 14.4178C34.2632 14.5162 34.1199 14.6578 34.0195 14.8286L31.0757 20.793L24.493 21.75C24.2911 21.7794 24.1015 21.8646 23.9455 21.9961C23.7895 22.1275 23.6734 22.3 23.6103 22.494C23.5472 22.688 23.5396 22.8958 23.5884 23.0939C23.6371 23.2919 23.7403 23.4724 23.8863 23.615L28.65 28.258L27.5253 34.8153C27.4909 35.0165 27.5134 35.2232 27.5904 35.4122C27.6673 35.6012 27.7956 35.7649 27.9608 35.8848C28.1259 36.0047 28.3213 36.0761 28.5248 36.0907C28.7284 36.1054 28.932 36.0628 29.1126 35.9678L35 32.8724L40.8875 35.9677C41.0681 36.0627 41.2717 36.1053 41.4752 36.0906C41.6787 36.0759 41.8741 36.0046 42.0393 35.8847C42.2044 35.7648 42.3327 35.6011 42.4096 35.4121C42.4866 35.2231 42.5091 35.0163 42.4747 34.8152L41.35 28.2579L46.1137 23.6149C46.2597 23.4723 46.3629 23.2918 46.4117 23.0938C46.4604 22.8957 46.4528 22.6879 46.3897 22.4939C46.3266 22.2999 46.2105 22.1274 46.0545 21.996C45.8986 21.8645 45.7089 21.7792 45.507 21.7499L38.9243 20.793ZM39.4113 27.0939C39.2845 27.2176 39.1897 27.3704 39.135 27.5389C39.0803 27.7075 39.0674 27.8868 39.0973 28.0615L39.9443 33.0006L35.5095 30.6688C35.3524 30.586 35.1776 30.5428 35 30.5428C34.8225 30.5428 34.6476 30.586 34.4905 30.6688L30.0563 33.0006L30.9033 28.0615C30.9332 27.8868 30.9203 27.7075 30.8656 27.5389C30.8109 27.3704 30.7161 27.2176 30.5892 27.0939L27.0003 23.5957L31.9596 22.8748C32.1351 22.8495 32.3018 22.7818 32.4453 22.6775C32.5888 22.5733 32.7048 22.4357 32.7832 22.2766L35 17.7844L37.2174 22.2769C37.2958 22.4359 37.4117 22.5735 37.5552 22.6778C37.6987 22.782 37.8654 22.8497 38.041 22.875L43.0003 23.5959L39.4113 27.0939Z" fill="white"/>
</svg>
