<svg width="18" height="15" viewBox="0 0 18 15" fill="none" xmlns="http://www.w3.org/2000/svg">
<path d="M17.8572 2.63994L16.0909 0.873617C15.9004 0.683078 15.5915 0.683078 15.401 0.873617L6.31151 9.9626L3.06895 6.72028C2.87841 6.52975 2.56955 6.52975 2.37901 6.72028L0.612691 8.4866C0.521204 8.57809 0.469727 8.70227 0.469727 8.83157C0.469727 8.96088 0.521204 9.08505 0.612691 9.17654L5.96655 14.5299C6.06194 14.6253 6.1866 14.6729 6.31151 14.6729C6.43667 14.6729 6.56085 14.6253 6.65648 14.5299L17.857 3.32987C17.9485 3.23839 18 3.11421 18 2.98491C18 2.8556 17.9487 2.73142 17.8572 2.63994Z" fill="#FDC92A"/>
</svg>
