<svg width="24" height="22" viewBox="0 0 24 22" fill="none" xmlns="http://www.w3.org/2000/svg">
<path d="M22.2489 2.48128C21.0652 1.13812 19.423 0.398438 17.625 0.398438C15.0962 0.398438 13.4952 1.90875 12.5974 3.17578C12.3645 3.50456 12.1664 3.83423 12 4.14445C11.8336 3.83423 11.6355 3.50456 11.4026 3.17578C10.5048 1.90875 8.90381 0.398438 6.375 0.398438C4.57697 0.398438 2.9348 1.13817 1.75102 2.48133C0.621891 3.76261 0 5.47861 0 7.3132C0 9.31022 0.779672 11.1676 2.45367 13.1585C3.94978 14.9379 6.10214 16.772 8.59453 18.8959C9.52327 19.6873 10.4837 20.5058 11.5062 21.4004L11.5369 21.4273C11.6694 21.5433 11.8347 21.6013 12 21.6013C12.1653 21.6013 12.3306 21.5433 12.4631 21.4273L12.4938 21.4004C13.5163 20.5058 14.4767 19.6874 15.4056 18.8958C17.8979 16.7721 20.0502 14.9379 21.5463 13.1585C23.2203 11.1676 24 9.31022 24 7.3132C24 5.47861 23.3781 3.76261 22.2489 2.48128ZM14.4934 17.8255C13.6928 18.5078 12.8688 19.2099 12 19.9652C11.1312 19.21 10.3072 18.5078 9.50644 17.8254C4.62867 13.6689 1.40625 10.9229 1.40625 7.3132C1.40625 5.82117 1.90336 4.43536 2.80603 3.41109C3.71906 2.3752 4.98652 1.80469 6.375 1.80469C8.30292 1.80469 9.54919 2.99241 10.2551 3.98878C10.8884 4.88241 11.2188 5.78325 11.3315 6.12905C11.4257 6.4185 11.6956 6.61439 12 6.61439C12.3044 6.61439 12.5743 6.4185 12.6685 6.12905C12.7812 5.78325 13.1116 4.88241 13.7449 3.98873C14.4508 2.99241 15.6971 1.80469 17.625 1.80469C19.0135 1.80469 20.2809 2.3752 21.1939 3.41109C22.0966 4.43536 22.5938 5.82117 22.5938 7.3132C22.5938 10.9229 19.3713 13.6689 14.4934 17.8255Z" fill="black"/>
</svg>
