<svg width="150" height="66" viewBox="0 0 150 66" fill="none" xmlns="http://www.w3.org/2000/svg">
<path fill-rule="evenodd" clip-rule="evenodd" d="M3.45953 28.3022C2.48037 28.2958 1.49553 28.3164 0.501465 28.3638C0.501465 28.3638 1.61611 28.3773 3.45953 28.5229V35.1817C3.45953 36.628 4.64038 37.8018 6.09483 37.8018H11.3655C12.8199 37.8018 14.0008 36.628 14.0008 35.1817V30.1404C17.2099 30.887 20.6425 31.9466 23.8747 33.4506C34.8055 38.5374 40.8523 43.2766 58.8765 55.1839C58.8765 55.1839 81.3192 72.0618 108.297 61.311C135.23 50.5781 132.262 30.2828 130.98 23.8889L140.762 9.33465C141.342 8.39567 141.371 7.37716 140.953 6.24896C140.62 5.34718 139.727 4.45501 138.386 4.3928C138.386 4.3928 135.38 4.31263 134.634 4.36715C134.163 4.40179 133.568 4.47747 133.117 4.70388C132.588 4.96813 132.212 5.41709 131.814 5.92442L125.877 15.8588L119.885 5.97252C118.604 3.91818 117.425 4.4563 113.873 4.4563H85.454C83.994 4.4563 82.8088 5.63452 82.8088 7.08597V8.72277C82.8088 10.1742 83.994 11.3524 85.454 11.3524H99.9895L81.9772 29.95C81.2695 30.6805 80.9443 31.413 80.9469 32.595C80.9475 33.0215 80.9482 35.1381 80.9482 35.1381C80.9482 36.5895 82.1334 37.7678 83.5934 37.7678H110.077C111.537 37.7678 112.722 36.5895 112.722 35.1381V33.5013C112.722 32.0498 111.537 30.8716 110.077 30.8716H92.7701C92.7701 30.8716 111.981 11.0471 112.141 11.017L120.981 24.3154C121.543 26.6327 122.446 31.1538 121.864 34.3755C121.05 38.8838 117.988 47.2461 104.538 52.9493C92.5572 58.029 77.3488 56.1652 60.1553 46.3982C54.4576 43.1612 42.7128 37.4965 42.7128 37.4965C42.7128 37.4965 60.1553 47.901 63.7604 50.791C63.7604 50.791 49.3756 43.02 40.4044 37.7447C41.5084 37.5035 42.3355 36.5248 42.3355 35.3549V19.0651C42.3355 17.7143 41.2328 16.6182 39.8746 16.6182H34.9528C33.5946 16.6182 32.492 17.7143 32.492 19.0651V33.3685C27.4124 30.9832 21.3854 28.7737 18.6635 28.0534C17.5335 27.6923 17.4528 27.7423 18.5256 28.0175C18.5707 28.029 18.6167 28.0406 18.6635 28.0534C20.5395 28.6524 25.308 30.3855 32.492 34.1023V35.3549C32.492 36.0264 32.7643 36.6344 33.2049 37.0764C26.3863 33.3332 20.1781 30.8171 14.0008 29.4715V24.1923H24.2138C25.6851 24.1923 26.8796 23.0051 26.8796 21.5421V20.0996C26.8796 18.6366 25.6851 17.4494 24.2138 17.4494H14.0008V11.6937H26.2222C27.8465 11.6937 29.1653 10.3827 29.1653 8.76767V7.17448C29.1653 5.56012 27.8465 4.24849 26.2222 4.24849H6.09483C4.64038 4.24849 3.45953 5.42287 3.45953 6.86854V28.3022ZM34.3935 37.7383C40.1996 41.0119 46.4615 45.1584 53.5274 50.2131C78.885 68.3527 98.6456 62.0043 98.6456 62.0043C87.9476 61.8889 81.203 60.8485 72.4817 57.2651C63.7604 53.6811 61.3185 51.138 42.8292 39.9241C41.5922 39.1743 40.3959 38.4669 39.2432 37.8018H34.9528C34.7605 37.8018 34.5733 37.7799 34.3935 37.7383ZM55.4759 19.8745L66.8675 36.2855C67.9688 37.8659 70.4198 37.8018 70.4198 37.8018H75.3417C76.6998 37.8018 77.8024 36.7056 77.8024 35.3549V6.69536C77.8024 5.34525 76.6998 4.24849 75.3417 4.24849H70.4198C69.0617 4.24849 67.9585 5.34525 67.9585 6.69536V22.6619L56.3056 5.8744C55.4075 4.4191 53.8497 4.26837 53.0149 4.24849H48.093C46.7348 4.24849 45.6321 5.34525 45.6321 6.69536V35.3549C45.6321 36.7056 46.7348 37.8018 48.093 37.8018H53.0149C54.3731 37.8018 55.4759 36.7056 55.4759 35.3549V19.8745Z" fill="url(#paint0_linear_329_2)"/>
<path fill-rule="evenodd" clip-rule="evenodd" d="M37.9539 1.13779C37.6753 0.860708 37.2228 0.860708 36.9442 1.13779L30.4861 7.55803C30.2074 7.8351 30.2074 8.28471 30.4861 8.56178L36.9442 14.982C37.2228 15.2591 37.6753 15.2591 37.9539 14.982L44.412 8.56178C44.6906 8.28471 44.6906 7.8351 44.412 7.55803L37.9539 1.13779Z" fill="url(#paint1_linear_329_2)"/>
<path d="M145.608 4.78368C146.041 4.78368 146.46 4.8947 146.871 5.11674C147.283 5.33185 147.604 5.65104 147.835 6.06044C148.065 6.46983 148.177 6.89311 148.177 7.34414C148.177 7.78129 148.065 8.20456 147.842 8.61396C147.611 9.01642 147.297 9.33561 146.885 9.55765C146.481 9.78664 146.055 9.89766 145.608 9.89766C145.161 9.89766 144.736 9.78664 144.331 9.55765C143.919 9.33561 143.605 9.01642 143.374 8.61396C143.151 8.20456 143.032 7.78129 143.032 7.34414C143.032 6.89311 143.151 6.46983 143.381 6.06044C143.612 5.65104 143.933 5.33185 144.345 5.11674C144.756 4.8947 145.175 4.78368 145.608 4.78368ZM145.608 5.20695C145.245 5.20695 144.896 5.29716 144.554 5.48451C144.212 5.66492 143.947 5.9286 143.751 6.27554C143.556 6.61555 143.465 6.96944 143.465 7.34414C143.465 7.7119 143.556 8.06579 143.744 8.39885C143.933 8.73886 144.198 9.00254 144.54 9.18989C144.882 9.37724 145.238 9.47439 145.608 9.47439C145.978 9.47439 146.334 9.37724 146.676 9.18989C147.018 9.00254 147.283 8.73886 147.472 8.39885C147.66 8.06579 147.751 7.7119 147.751 7.34414C147.751 6.96944 147.653 6.61555 147.465 6.27554C147.269 5.9286 147.004 5.66492 146.662 5.48451C146.32 5.29716 145.971 5.20695 145.608 5.20695ZM144.477 8.75274V6.00493H145.434C145.755 6.00493 145.992 6.02574 146.139 6.08125C146.285 6.12983 146.397 6.22003 146.488 6.34493C146.571 6.46983 146.613 6.60861 146.613 6.74739C146.613 6.94862 146.543 7.12209 146.397 7.27475C146.25 7.42047 146.062 7.50373 145.824 7.52455C145.922 7.56618 145.999 7.61476 146.062 7.67027C146.173 7.78129 146.306 7.9617 146.467 8.21844L146.809 8.75274H146.257L146.013 8.32253C145.824 7.98252 145.664 7.76741 145.545 7.67721C145.468 7.61476 145.35 7.587 145.189 7.587H144.924V8.75274H144.477ZM144.924 7.20536H145.468C145.727 7.20536 145.908 7.17067 145.999 7.0874C146.097 7.01107 146.139 6.91392 146.139 6.78902C146.139 6.70576 146.118 6.62943 146.076 6.56698C146.027 6.50453 145.964 6.45596 145.88 6.42126C145.803 6.39351 145.65 6.37269 145.434 6.37269H144.924V7.20536Z" fill="#6F9328"/>
<defs>
<linearGradient id="paint0_linear_329_2" x1="88.983" y1="10.6315" x2="88.983" y2="63.7353" gradientUnits="userSpaceOnUse">
<stop stop-color="#6F9328"/>
<stop offset="1" stop-color="#C4FD15"/>
</linearGradient>
<linearGradient id="paint1_linear_329_2" x1="37.8477" y1="1.47451" x2="37.8477" y2="15.1159" gradientUnits="userSpaceOnUse">
<stop stop-color="#FDC92A"/>
<stop offset="1" stop-color="#FF9802"/>
</linearGradient>
</defs>
</svg>
