<svg width="24" height="24" viewBox="0 0 24 24" fill="none" xmlns="http://www.w3.org/2000/svg">
<path d="M11.9999 0C7.34029 0 3.54956 3.85031 3.54956 8.58277V15.4175C3.54956 20.1499 7.34029 24 11.9999 24C16.6592 24 20.4502 20.1616 20.4502 15.4437V8.58277C20.4502 3.85031 16.6592 0 11.9999 0ZM18.8608 15.4437C18.8608 19.2853 15.7832 22.4106 11.9999 22.4106C8.21685 22.4106 5.139 19.2734 5.139 15.4172V8.58277C5.139 4.72659 8.21685 1.58939 11.9999 1.58939C15.7832 1.58939 18.8608 4.72659 18.8608 8.58277V15.4437Z" fill="#91FFEC"/>
<path d="M12 6.56952C11.5611 6.56952 11.2053 6.9253 11.2053 7.36424V10.1457C11.2053 10.5846 11.5611 10.9404 12 10.9404C12.439 10.9404 12.7948 10.5846 12.7948 10.1457V7.36424C12.7948 6.9253 12.439 6.56952 12 6.56952Z" fill="#91FFEC"/>
</svg>
