<svg width="19" height="24" viewBox="0 0 19 24" fill="none" xmlns="http://www.w3.org/2000/svg">
<path d="M3.42424 23.25C3.04924 23.25 2.67424 23.175 2.33674 22.9875C1.43674 22.575 0.911743 21.7125 0.911743 20.7V3.2625C0.911743 1.875 2.03674 0.75 3.42424 0.75H15.8742C17.2617 0.75 18.3867 1.875 18.3867 3.2625V20.7375C18.3867 21.7125 17.8242 22.575 16.9617 23.025C16.0617 23.4375 15.0492 23.325 14.2992 22.6875L10.2867 19.425C9.91174 19.125 9.38674 19.125 9.01174 19.425L4.99924 22.6875C4.54924 23.0625 3.98674 23.25 3.42424 23.25V23.25ZM9.64924 17.6625C10.2117 17.6625 10.7742 17.85 11.2242 18.225L15.2367 21.4875C15.5367 21.75 15.9492 21.7875 16.3242 21.6375C16.6992 21.45 16.8867 21.1125 16.8867 20.7375V3.2625C16.8867 2.7 16.4367 2.25 15.8742 2.25H3.42424C2.86174 2.25 2.41174 2.7 2.41174 3.2625V20.7375C2.41174 21.15 2.63674 21.4875 2.97424 21.6375C3.34924 21.825 3.72424 21.75 4.06174 21.4875L8.07424 18.225C8.52424 17.8875 9.08674 17.6625 9.64924 17.6625V17.6625Z" fill="black"/>
</svg>
