<svg width="24" height="24" viewBox="0 0 24 24" fill="none" xmlns="http://www.w3.org/2000/svg">
<path d="M23.794 0.205953C23.6111 0.0230469 23.3425 -0.0446406 23.0948 0.0296563L1.58475 6.4827C0.636844 6.76705 0 7.62298 0 8.61294C0 9.58915 0.655547 10.4583 1.59427 10.7265L10.6781 13.3219L13.2735 22.4057C13.5417 23.3444 14.4108 24 15.3874 24C16.377 24 17.2329 23.3631 17.5173 22.4152L23.9703 0.905141C24.0447 0.657406 23.977 0.388859 23.794 0.205953V0.205953ZM1.40625 8.61261C1.40625 8.24881 1.64034 7.93419 1.98881 7.82966L20.8277 2.17798L11.0422 11.9634L1.98056 9.37437C1.64245 9.27772 1.40625 8.96464 1.40625 8.61261V8.61261ZM16.1704 22.0112C16.0658 22.3596 15.7512 22.5937 15.387 22.5937C15.0353 22.5937 14.7223 22.3576 14.6257 22.0194L12.0366 12.9577L21.822 3.1723L16.1704 22.0112Z" fill="black"/>
</svg>
